<svg width="50" height="50" viewBox="0 0 50 50" fill="none" xmlns="http://www.w3.org/2000/svg">
<circle cx="25" cy="25" r="25" fill="white"/>
<path fill-rule="evenodd" clip-rule="evenodd" d="M19.7317 25.1143V34.0619L22.8903 34.0549C26.1594 34.0465 26.1359 34.0476 26.6147 33.9719C29.0393 33.5915 30.4545 31.9216 30.5793 29.2957C30.6979 26.8036 29.4563 25.008 27.3306 24.596C27.2539 24.5808 27.2783 24.5593 27.4207 24.5182C28.8411 24.1104 29.8676 22.4701 29.8676 20.6109C29.8676 18.4318 28.7071 16.8038 26.8142 16.3263C26.1762 16.1659 26.2385 16.168 22.7505 16.168H19.7322V25.1146L19.7317 25.1143ZM25.4982 18.5292C26.8461 18.7572 27.5047 19.5201 27.5466 20.9036C27.5895 22.3515 26.9288 23.2923 25.6364 23.6248C25.2131 23.7332 24.9419 23.7486 23.3796 23.7486H22.0492V21.1339C22.0492 19.696 22.0545 18.514 22.0594 18.507C22.0767 18.4855 25.3631 18.507 25.4984 18.5292H25.4982ZM25.7631 25.9777C27.3594 26.214 28.1458 27.0708 28.2144 28.6507C28.2869 30.33 27.4833 31.3934 25.9453 31.651C25.6016 31.7093 25.4348 31.7135 23.7498 31.7135L22.0492 31.7146V25.935L23.805 25.941C25.3532 25.9473 25.5851 25.9515 25.7631 25.9777Z" fill="#F6F1FB"/>
<path fill-rule="evenodd" clip-rule="evenodd" d="M30.028 8.52931C29.9738 8.61203 29.9175 8.70523 29.9013 8.73481C29.8851 8.76439 29.8327 8.84318 29.7856 8.90968C29.7385 8.97617 29.6997 9.03952 29.6997 9.05104C29.6997 9.06203 29.6762 9.10182 29.6474 9.13978C29.5688 9.24397 29.4911 9.36779 29.4911 9.38926C29.4911 9.40051 29.4788 9.41884 29.4657 9.43114C29.4513 9.44449 29.3683 9.56831 29.2806 9.70837C29.1935 9.84842 29.1107 9.97224 29.0974 9.98533C29.0832 9.99763 29.072 10.0162 29.072 10.0272C29.072 10.0489 28.9778 10.2 28.9513 10.2207C28.9421 10.2277 28.9063 10.2882 28.8704 10.3555C28.8346 10.423 28.8008 10.4793 28.7958 10.4793C28.7908 10.4793 28.7571 10.5275 28.7233 10.5845C28.6885 10.6421 28.616 10.7586 28.5626 10.8424C28.439 11.0356 28.4531 11.0131 28.3806 11.133C28.3478 11.1863 28.3131 11.2385 28.2764 11.2893C28.2529 11.3188 28.2346 11.3516 28.2346 11.3618C28.2335 11.3722 28.1864 11.4466 28.1291 11.5285C28.0717 11.6105 28.0249 11.6861 28.0249 11.6961C28.0249 11.7076 28.0044 11.7421 27.9788 11.7759C27.9052 11.8712 27.8152 12.0133 27.8152 12.0348C27.8152 12.0461 27.811 12.0542 27.8047 12.0542C27.7987 12.0542 27.7476 12.1309 27.6895 12.2228C27.6319 12.316 27.5534 12.4387 27.5154 12.4958C27.4767 12.5534 27.4173 12.6482 27.3827 12.7086C27.351 12.7638 27.3164 12.8174 27.2793 12.8691C27.2498 12.9092 27.2235 12.9515 27.2008 12.9958C27.1792 13.0375 27.1545 13.0776 27.127 13.1157C27.1076 13.1393 27.0647 13.2047 27.0309 13.2586C26.9204 13.4437 26.8039 13.6207 26.7864 13.6351C26.7762 13.6432 26.7681 13.6576 26.7681 13.6667C26.7681 13.6882 26.6851 13.8212 26.6115 13.9173C26.5827 13.956 26.5584 13.995 26.5584 14.0052C26.5584 14.0154 26.5144 14.0869 26.4602 14.1636C26.4191 14.2206 26.3809 14.2797 26.3458 14.3406C26.3251 14.3856 26.0031 14.8919 25.9796 14.9165C25.9596 14.9441 25.9421 14.9734 25.9275 15.0042C25.8964 15.0622 25.8613 15.1179 25.8223 15.1709C25.7843 15.2233 25.7372 15.2976 25.7178 15.3366C25.6882 15.3914 25.6547 15.444 25.6175 15.494C25.583 15.5421 25.5531 15.5861 25.5531 15.5921C25.5531 15.5974 25.045 15.5984 24.4233 15.5942L23.2924 15.5861L23.2584 15.6361C23.239 15.6639 23.2126 15.7037 23.1982 15.7251L23.1728 15.7631L21.8259 15.7804C21.0181 15.7916 20.4455 15.806 20.3942 15.817L20.1856 15.8633C20.0476 15.894 19.8217 15.995 19.7542 16.0576C19.7296 16.079 19.6887 16.1118 19.662 16.1311C19.5814 16.1861 19.3545 16.5217 19.3545 16.5851C19.3545 16.5974 19.3401 16.6445 19.3217 16.6895C19.3034 16.7356 19.2725 16.8429 19.2531 16.9298C19.1589 17.3521 19.1599 17.3387 19.1589 19.8636V22.1133L19.0202 22.3097V25.917L18.9382 26.045C18.8932 26.1157 18.8461 26.184 18.8338 26.1974C18.8207 26.2105 18.8102 26.229 18.8102 26.2382C18.8102 26.2565 18.7408 26.3639 18.6508 26.4877C18.6233 26.5256 18.6008 26.5654 18.6008 26.5756C18.6008 26.5869 18.5783 26.627 18.5505 26.6646C18.4586 26.7903 18.3908 26.8958 18.3908 26.9141C18.3908 26.9246 18.384 26.9398 18.3736 26.9468C18.3552 26.9612 18.2335 27.1495 18.1301 27.3212C18.1018 27.3696 18.0708 27.4163 18.0372 27.4612C18.0051 27.5057 17.9764 27.5526 17.9513 27.6013C17.9225 27.6537 17.8806 27.7199 17.8571 27.7487C17.8242 27.7933 17.7948 27.8405 17.7694 27.8898C17.75 27.9298 17.7267 27.9678 17.6997 28.0031C17.6649 28.039 17.5537 28.2251 17.5537 28.2466C17.5537 28.2571 17.5484 28.2649 17.5414 28.2649C17.5351 28.2649 17.4921 28.3243 17.4471 28.3969C17.4024 28.4686 17.3602 28.5277 17.3552 28.5277C17.349 28.5277 17.344 28.5369 17.344 28.5471C17.344 28.5696 17.2233 28.7618 17.1712 28.8246C17.1508 28.8479 17.1346 28.8754 17.1346 28.8856C17.1346 28.8958 17.0882 28.9717 17.0298 29.0534C16.9728 29.1353 16.9257 29.211 16.9257 29.2209C16.9257 29.2325 16.9084 29.2628 16.8869 29.2916C16.8552 29.3335 16.8134 29.3971 16.705 29.5699C16.6987 29.579 16.6568 29.6455 16.6107 29.716C16.5647 29.7864 16.5178 29.8623 16.5065 29.8827C16.4717 29.9471 16.3746 30.0945 16.3623 30.1005C16.356 30.1047 16.3233 30.1618 16.2887 30.2283C16.2529 30.2937 16.217 30.3539 16.2079 30.3623C16.1864 30.3788 16.0874 30.5322 16.0874 30.5484C16.0874 30.5555 16.0513 30.6139 16.0063 30.6783C15.9626 30.7427 15.8796 30.8694 15.8223 30.9615C15.7662 31.0526 15.712 31.1343 15.7018 31.1416C15.6914 31.1487 15.6741 31.1804 15.6618 31.211C15.6505 31.2427 15.6086 31.3112 15.5699 31.3644C15.5309 31.4167 15.483 31.4921 15.4634 31.5301C15.4353 31.5824 15.4036 31.6326 15.3683 31.6804C15.3322 31.7306 15.2991 31.7828 15.2691 31.8369C15.2476 31.8788 15.216 31.9298 15.2005 31.9495C15.1422 32.0362 15.0856 32.124 15.0309 32.2131C14.9531 32.3379 14.8764 32.4555 14.8602 32.4738C14.8448 32.4921 14.8304 32.5157 14.8304 32.5272C14.8304 32.5374 14.7832 32.6131 14.7262 32.6937C14.6688 32.7756 14.6217 32.8513 14.6217 32.8626C14.6217 32.8728 14.6013 32.9086 14.5759 32.9411C14.5 33.0406 14.4123 33.1793 14.4123 33.2C14.4115 33.2062 14.4095 33.2122 14.4063 33.2177C14.4032 33.2231 14.399 33.2279 14.394 33.2317C14.3764 33.2461 14.2681 33.4126 14.1495 33.6078C14.121 33.6566 14.0899 33.7038 14.0563 33.7492C14.038 33.7715 14 33.833 13.9725 33.8853C13.945 33.9377 13.9 34.0078 13.8733 34.0416C13.84 34.0881 13.809 34.1361 13.7804 34.1856C13.7558 34.2306 13.6984 34.3207 13.6547 34.3861C13.611 34.4516 13.5746 34.5149 13.5746 34.5275C13.5746 34.54 13.5686 34.5508 13.5626 34.5508C13.5563 34.5508 13.5134 34.6092 13.4683 34.6817C13.4233 34.7531 13.3814 34.8126 13.3754 34.8126C13.3702 34.8126 13.3649 34.8207 13.3649 34.8309C13.3649 34.8523 13.2301 35.0673 13.1851 35.1173C13.1688 35.1356 13.1555 35.1592 13.1555 35.1704C13.1555 35.1809 13.1084 35.2563 13.051 35.3379C12.9937 35.4196 12.9469 35.4955 12.9469 35.5068C12.9458 35.5173 12.9285 35.5487 12.906 35.5764C12.862 35.6327 12.5471 36.1267 12.5123 36.1961C12.4992 36.2196 12.4508 36.2942 12.4039 36.361C12.3568 36.4272 12.3181 36.4895 12.3181 36.5008C12.3181 36.5112 12.2945 36.5521 12.2649 36.5898C12.1872 36.6932 12.1084 36.8178 12.1084 36.8403C12.1084 36.8508 12.0971 36.8699 12.0827 36.8822C12.0696 36.8945 12.0092 36.9835 11.949 37.0796C11.822 37.2843 11.8199 37.2864 11.822 37.1953C11.823 37.1573 11.8188 37.1298 11.8128 37.1338C11.7893 37.1521 11.8047 37.9437 11.8283 37.9345C11.8456 37.9275 11.8466 37.9293 11.8312 37.9427C11.8118 37.9602 11.8128 38 11.8364 38.227C11.8435 38.2976 11.8678 38.456 11.8814 38.5246C11.8843 38.5387 11.8866 38.5725 11.8866 38.6003C11.8866 38.6267 11.8966 38.6534 11.9079 38.6594C11.9202 38.6646 11.9233 38.6738 11.9152 38.6798C11.9079 38.6861 11.9047 38.7126 11.9089 38.7382C11.9131 38.7649 11.9223 38.7822 11.9283 38.7772C11.9356 38.772 11.9377 38.779 11.9325 38.7924C11.9243 38.8212 11.9898 39.0717 12.0215 39.133C12.0327 39.1544 12.0377 39.1717 12.0327 39.1717C12.0285 39.1717 12.0387 39.2097 12.0573 39.2555C12.0746 39.3008 12.0982 39.3722 12.1084 39.4131C12.1186 39.4542 12.133 39.4869 12.1401 39.4869C12.1461 39.4869 12.1492 39.4929 12.1453 39.5C12.1421 39.5084 12.1668 39.5728 12.2003 39.6453C12.2343 39.7167 12.2751 39.812 12.2914 39.8547C12.3076 39.8974 12.3456 39.9746 12.3751 40.0256C12.5144 40.261 12.5461 40.3099 12.5584 40.3099C12.5654 40.3099 12.5675 40.317 12.5636 40.3254C12.5594 40.3345 12.5869 40.3835 12.6257 40.4348C12.6647 40.4869 12.7118 40.5544 12.7312 40.5861C12.8374 40.7589 13.2801 41.1987 13.4982 41.3458C13.6657 41.4594 13.855 41.5738 13.901 41.5903C13.9246 41.5982 14.0186 41.6374 14.1094 41.6762C14.1995 41.7149 14.3508 41.7691 14.444 41.7948L14.6147 41.8419H35.1246L35.2995 41.7937C35.4361 41.7535 35.5702 41.7054 35.7013 41.6497C35.906 41.5626 35.9846 41.5175 36.2615 41.3345C36.5257 41.1586 36.9285 40.7262 37.1738 40.3539C37.2312 40.266 37.4356 39.9029 37.4356 39.8887C37.4356 39.8804 37.4654 39.8128 37.5021 39.7374C37.5921 39.5489 37.6924 39.2649 37.7814 38.9448C37.8254 38.7864 37.8346 38.7414 37.8916 38.3578L37.9296 38.1126L37.9306 36.6338C37.9327 34.9906 37.9408 34.739 38.0288 33.5264C38.0851 32.7479 38.1086 32.5434 38.2382 31.6448C38.3029 31.1927 38.4911 30.2743 38.5882 29.9348C38.6238 29.8112 38.6699 29.6424 38.6924 29.5597C38.7139 29.4777 38.7518 29.3552 38.7751 29.2887C38.7997 29.2222 38.8387 29.1118 38.862 29.0442C39.0086 28.6188 39.2058 28.1804 39.3969 27.8571C39.5812 27.5471 39.6149 27.4961 39.7764 27.2927C40.1241 26.855 40.5228 26.544 40.9471 26.3783C41.1579 26.2955 41.3471 26.2395 41.4921 26.2146L41.6241 26.1932V24.0348L41.4921 24.0133C41.2764 23.9777 40.8971 23.8468 40.7191 23.7463C40.6886 23.7281 40.6571 23.7115 40.6249 23.6966C40.6209 23.6966 40.5741 23.6646 40.5199 23.627C40.4657 23.5879 40.4154 23.5563 40.4084 23.5563C40.395 23.5563 40.2029 23.3906 40.0471 23.2434C39.9267 23.1298 39.6353 22.7681 39.5524 22.6288C39.5315 22.5931 39.5096 22.5581 39.4869 22.5236C39.4686 22.5052 39.3089 22.222 39.2325 22.0707C39.1188 21.8508 38.9602 21.4701 38.8623 21.184C38.8337 21.1024 38.8046 21.0209 38.7751 20.9395C38.7516 20.873 38.7139 20.7513 38.6924 20.6686C38.6699 20.5866 38.6238 20.417 38.5882 20.2932C38.4911 19.9547 38.3029 19.0366 38.2385 18.5845C38.1086 17.6887 38.0872 17.4924 38.0288 16.7021C37.9408 15.5037 37.9327 15.2377 37.9306 13.6037C37.9296 12.1586 37.9285 12.1298 37.8979 11.9236C37.882 11.8187 37.8669 11.7137 37.8529 11.6086C37.8191 11.3539 37.6361 10.7691 37.5021 10.4919C37.4654 10.416 37.4356 10.3479 37.4356 10.3406C37.4356 10.3251 37.2314 9.96203 37.1738 9.87512C36.9325 9.50811 36.5102 9.05208 36.2689 8.89868C36.2312 8.87512 36.1369 8.81386 36.0613 8.76256C35.9846 8.71151 35.9029 8.66439 35.8793 8.65627C35.8558 8.6492 35.7576 8.60732 35.6605 8.56439C35.5465 8.51453 35.4298 8.47144 35.3107 8.43533L35.139 8.38638L32.6327 8.38219L30.1254 8.37695L30.0283 8.52957L30.028 8.52931ZM25.8683 16.1683C26.3202 16.1979 26.8356 16.2921 27.1249 16.3984C27.7589 16.6314 28.1628 16.8717 28.5801 17.2665C29.9882 18.5979 30.3042 21.1565 29.2838 22.951C28.8296 23.7497 28.1016 24.3683 27.4267 24.5309C27.2592 24.5709 27.261 24.5728 27.533 24.628C29.7377 25.079 30.9607 27.3688 30.4963 30.1736C30.1456 32.2874 28.7047 33.6903 26.5777 33.9887C26.089 34.0584 25.9599 34.0605 22.8003 34.0605H19.7183V16.1508H22.6602C24.3984 16.1508 25.7115 16.1578 25.8681 16.1681L25.8683 16.1683ZM22.0631 21.1238V23.7338L23.5539 23.7264C25.1675 23.7191 25.1217 23.7212 25.5919 23.617C26.8793 23.3317 27.5657 22.3859 27.533 20.9398C27.5042 19.7167 26.9971 18.9683 25.9796 18.6471C25.6 18.5275 25.3681 18.5152 23.5469 18.5152L22.0631 18.5141V21.1238ZM22.0631 28.8178V31.6984L23.8955 31.6924C25.8906 31.6861 25.8058 31.6893 26.227 31.583C27.5102 31.2597 28.1657 30.3772 28.2026 28.9212C28.2424 27.3513 27.5542 26.3882 26.1686 26.0712C25.6471 25.9516 25.3832 25.9382 23.5539 25.9382L22.0631 25.9372V28.8175V28.8178ZM11.4814 31.5152C11.4814 31.5335 11.4874 31.5602 11.4958 31.5743C11.506 31.594 11.5071 31.5866 11.4997 31.5479C11.4885 31.4835 11.4804 31.4701 11.4814 31.5152ZM11.6932 33.273C11.6932 33.3068 11.6961 33.3201 11.7003 33.3037C11.7033 33.2833 11.7033 33.2625 11.7003 33.2421C11.6961 33.2249 11.6932 33.2393 11.6932 33.273ZM11.7094 33.4806C11.7147 33.5133 11.7175 33.5704 11.7175 33.6073C11.7175 33.6453 11.7238 33.6749 11.7298 33.6749C11.7421 33.6749 11.7238 33.4489 11.7094 33.4325C11.7042 33.4264 11.7042 33.4479 11.7094 33.4806ZM11.783 34.5102C11.7777 34.5165 11.7738 34.5408 11.7738 34.5654C11.7738 34.6207 11.7893 34.6044 11.7942 34.5429C11.7984 34.495 11.7974 34.4919 11.783 34.5102ZM11.7882 34.8715C11.7882 34.9071 11.7935 34.9356 11.8005 34.9356C11.8065 34.9356 11.8097 34.911 11.8065 34.8806C11.7995 34.8016 11.7882 34.7955 11.7882 34.8712V34.8715ZM11.8249 35.5073C11.8118 35.5246 11.8136 35.6042 11.828 35.5932C11.8353 35.5879 11.8403 35.5644 11.8403 35.54C11.8403 35.4919 11.8393 35.4898 11.8249 35.5073ZM11.8249 35.6319C11.8157 35.6534 11.8178 35.8314 11.828 35.8191C11.8353 35.8099 11.8411 35.6188 11.8343 35.6188C11.8322 35.6188 11.8291 35.6249 11.8249 35.6319ZM11.8249 35.8581C11.8196 35.8641 11.8157 35.8887 11.8157 35.9131C11.8157 35.9675 11.8322 35.95 11.8372 35.8908C11.8414 35.8437 11.8403 35.8395 11.8249 35.8581ZM11.8157 36.0421C11.8157 36.0819 11.8209 36.1086 11.8262 36.1013C11.8403 36.083 11.8414 35.9686 11.827 35.9686C11.8209 35.9686 11.8157 36.0013 11.8157 36.0419V36.0421ZM11.8157 36.1811C11.8157 36.2118 11.8199 36.2311 11.8249 36.2251C11.8414 36.2047 11.8445 36.1466 11.8291 36.1351C11.822 36.129 11.816 36.1484 11.816 36.1811H11.8157ZM11.816 36.4921C11.816 36.583 11.8199 36.6516 11.8249 36.6453C11.8393 36.627 11.8424 36.3835 11.8291 36.3539C11.8209 36.3377 11.8168 36.3898 11.816 36.4919V36.4921ZM11.816 36.7568C11.816 36.8254 11.8361 36.8254 11.8382 36.7568C11.8393 36.7272 11.8343 36.7037 11.828 36.7037C11.8209 36.7037 11.8157 36.7272 11.8157 36.7568H11.816ZM11.8157 36.8817C11.8157 36.9461 11.8249 36.9429 11.8353 36.8743C11.8393 36.8479 11.8361 36.8264 11.8291 36.8264C11.822 36.8264 11.816 36.8518 11.816 36.8814L11.8157 36.8817ZM11.823 37.0034C11.8301 37.0767 11.8435 37.0903 11.8435 37.0228C11.8435 36.9932 11.8372 36.9644 11.8301 36.9584C11.823 36.9521 11.8196 36.9707 11.823 37.0034Z" fill="#790AF6"/>
<path fill-rule="evenodd" clip-rule="evenodd" d="M14.5657 8.41275C14.1945 8.49233 13.8201 8.6562 13.5369 8.86458C13.4819 8.90463 13.4327 8.93814 13.4275 8.93814C13.4173 8.93814 13.1146 9.20097 13.0767 9.2439C12.8191 9.53238 12.7678 9.59364 12.6516 9.76039C12.5717 9.87688 12.3539 10.2421 12.3293 10.3033C12.3049 10.3593 12.2797 10.4149 12.2537 10.4701C12.089 10.8156 11.9408 11.3046 11.8783 11.7012C11.8099 12.1358 11.811 12.1114 11.8089 13.7086C11.8068 15.1892 11.7984 15.5237 11.7526 16.1771C11.7484 16.2345 11.7322 16.4593 11.716 16.6761C11.7003 16.8929 11.6851 17.1169 11.6809 17.1751C11.6717 17.3439 11.5971 17.9667 11.5421 18.3305C11.519 18.4779 11.498 18.6255 11.4793 18.7735C11.461 18.9248 11.2688 19.8737 11.2126 20.0894C11.1309 20.4065 10.9835 20.9065 10.9222 21.0792C10.903 21.1315 10.8847 21.184 10.8673 21.2368C10.6709 21.8881 10.1256 22.8248 9.70025 23.2431C9.47643 23.462 8.97826 23.819 8.89449 23.819C8.88324 23.819 8.83612 23.8353 8.79109 23.8546C8.64816 23.9169 8.39345 23.9926 8.2513 24.0143L8.11517 24.0355L8.11831 25.1125L8.1225 26.1892L8.27591 26.2188C8.96098 26.3497 9.639 26.7947 10.0338 27.3703C10.0573 27.4049 10.0809 27.4366 10.0859 27.4387C10.0989 27.447 10.2903 27.7444 10.3578 27.863C10.4662 28.0523 10.6126 28.3468 10.678 28.5104C10.7146 28.6015 10.7555 28.6965 10.7678 28.7211C10.817 28.813 11.0636 29.5525 11.05 29.5688C11.0461 29.574 11.0489 29.5779 11.0563 29.5779C11.0644 29.5779 11.0707 29.5884 11.0715 29.6004C11.0725 29.6127 11.1073 29.7489 11.1492 29.9041C11.2178 30.1536 11.2547 30.302 11.2639 30.3583L11.2976 30.5156C11.3325 30.6711 11.3314 30.6641 11.361 30.8214C11.3733 30.884 11.3898 30.9586 11.3968 30.9881C11.4264 31.1109 11.4919 31.485 11.5021 31.6007C11.5063 31.6384 11.5123 31.6824 11.5165 31.6968C11.5204 31.7112 11.5267 31.7541 11.5306 31.7929C11.5345 31.8316 11.5471 31.9177 11.5573 31.9853C11.5921 32.208 11.6594 32.7531 11.6699 32.8871C11.6811 33.0476 11.684 33.0813 11.6953 33.1939C11.6995 33.2418 11.7065 33.3277 11.7107 33.3839C11.7149 33.4402 11.7209 33.4923 11.7251 33.5007C11.728 33.5078 11.7322 33.5813 11.7343 33.6643C11.7353 33.747 11.7421 33.8146 11.7495 33.8146C11.7568 33.8146 11.7586 33.8258 11.7547 33.8392C11.7508 33.8525 11.7547 33.873 11.7639 33.885C11.7762 33.9025 11.7762 33.9046 11.7628 33.8955C11.7414 33.8798 11.7393 33.9261 11.7597 33.973C11.7691 33.9944 11.7691 34.0088 11.7597 34.0159C11.7505 34.0232 11.7505 34.0394 11.7568 34.057C11.7639 34.0732 11.767 34.1316 11.7646 34.1879C11.7628 34.2429 11.7647 34.2847 11.7699 34.2808C11.7762 34.2766 11.7793 34.3279 11.7783 34.3944C11.7772 34.4609 11.7801 34.512 11.7853 34.5078C11.7906 34.5049 11.7958 34.5732 11.7966 34.6612C11.7974 34.7491 11.8026 34.9518 11.8078 35.1101C11.812 35.2698 11.816 35.425 11.816 35.4567C11.817 35.4884 11.8222 35.5099 11.8283 35.5049C11.8345 35.5007 11.8395 35.5161 11.8395 35.5397C11.8395 35.5641 11.8343 35.5876 11.8272 35.5929C11.8234 35.5964 11.8204 35.6006 11.8183 35.6054C11.8162 35.6101 11.815 35.6152 11.8149 35.6203C11.8149 35.6295 11.8222 35.6316 11.8314 35.6256C11.8406 35.6175 11.8437 35.6203 11.8374 35.6326C11.8233 35.6614 11.8181 35.7748 11.8314 35.7646C11.8487 35.7515 11.8445 35.8012 11.8272 35.824C11.8149 35.8392 11.8149 35.8504 11.8283 35.8698C11.8406 35.8894 11.8414 35.9057 11.8293 35.9324C11.8212 35.9518 11.8201 35.968 11.8262 35.968C11.8406 35.968 11.8406 36.0735 11.8251 36.1031C11.8191 36.1143 11.8212 36.1287 11.8283 36.1347C11.8437 36.146 11.8414 36.1921 11.8241 36.2269C11.8181 36.24 11.8212 36.2483 11.8314 36.2483C11.8437 36.2494 11.8445 36.2536 11.8353 36.2614C11.8275 36.2688 11.8233 36.2942 11.8262 36.319C11.8345 36.3863 11.8335 36.6203 11.8241 36.6646C11.8201 36.686 11.8222 36.7033 11.8293 36.7033C11.8455 36.7033 11.8395 36.7963 11.8222 36.8127C11.8128 36.8209 11.8139 36.8258 11.8241 36.8258C11.8395 36.8258 11.8374 36.8997 11.8212 36.9332C11.8181 36.9405 11.8212 36.9507 11.8293 36.9567C11.8364 36.963 11.8424 36.9936 11.8424 37.0243C11.8424 37.0675 11.8395 37.0735 11.8283 37.0541C11.8191 37.0358 11.816 37.058 11.8201 37.1326C11.8233 37.1952 11.8191 37.2473 11.8097 37.2627C11.7976 37.2832 11.7987 37.2842 11.817 37.2706C11.8293 37.2627 11.8887 37.1769 11.9489 37.0795C12.0084 36.9834 12.0686 36.8944 12.083 36.8824C12.0974 36.8703 12.1084 36.8504 12.1084 36.8405C12.1084 36.8177 12.1872 36.6931 12.2649 36.5897C12.2937 36.552 12.3181 36.5112 12.3181 36.5007C12.3181 36.4897 12.356 36.4274 12.4029 36.3607C12.4497 36.2939 12.4992 36.2196 12.5112 36.196C12.5471 36.1266 12.862 35.6326 12.906 35.5764C12.9285 35.5489 12.9461 35.5172 12.9461 35.507C12.9461 35.4957 12.9932 35.4201 13.0513 35.3381C13.1086 35.2565 13.1555 35.1808 13.1555 35.1706C13.1555 35.1591 13.1688 35.1358 13.1853 35.1172C13.2304 35.0672 13.3652 34.8525 13.3652 34.8311C13.3652 34.8206 13.3694 34.8127 13.3756 34.8127C13.3819 34.8127 13.4236 34.7533 13.4686 34.6819C13.5136 34.6091 13.5555 34.551 13.5628 34.551C13.5688 34.551 13.5738 34.5394 13.5738 34.5274C13.5738 34.5154 13.6105 34.4515 13.6547 34.386C13.6987 34.3206 13.7547 34.2308 13.7804 34.1858C13.805 34.1408 13.8468 34.0764 13.8736 34.0415C13.9 34.0078 13.9442 33.9371 13.9725 33.885C13.9972 33.8377 14.0252 33.7922 14.0563 33.7489C14.0892 33.7032 14.1203 33.6562 14.1495 33.608C14.2681 33.4127 14.3764 33.246 14.394 33.2316C14.399 33.2278 14.4031 33.2231 14.4063 33.2177C14.4094 33.2123 14.4115 33.2064 14.4123 33.2002C14.4123 33.1792 14.5003 33.0405 14.5759 32.941C14.6005 32.9086 14.6209 32.873 14.6209 32.8625C14.6209 32.8512 14.6681 32.7756 14.7262 32.6936C14.7838 32.613 14.8306 32.5374 14.8306 32.5271C14.8306 32.5159 14.8437 32.4923 14.8602 32.474C14.8767 32.4557 14.9534 32.3379 15.0309 32.2133C15.1086 32.0884 15.1843 31.9698 15.2008 31.9494C15.226 31.9134 15.2489 31.8758 15.2694 31.8368C15.2919 31.7939 15.3356 31.7243 15.3683 31.6803C15.401 31.6363 15.4432 31.569 15.4636 31.53C15.483 31.4923 15.5311 31.4167 15.5699 31.3643C15.6086 31.3112 15.6508 31.2429 15.662 31.2109C15.6741 31.1803 15.6916 31.1486 15.7018 31.1415C15.712 31.1342 15.7662 31.0525 15.8222 30.9614C15.8788 30.8696 15.9615 30.7426 16.0065 30.6782C16.0505 30.6138 16.0874 30.5557 16.0874 30.5483C16.0874 30.5321 16.1864 30.3787 16.2078 30.3625C16.2173 30.3541 16.2529 30.2939 16.2877 30.2285C16.3225 30.162 16.3563 30.1046 16.3623 30.1004C16.3736 30.0944 16.4717 29.947 16.5065 29.8826C16.5716 29.7777 16.6377 29.6734 16.705 29.5698C16.8133 29.397 16.8552 29.3337 16.8869 29.2915C16.9073 29.263 16.9259 29.2324 16.9259 29.2209C16.9259 29.2109 16.973 29.1353 17.0301 29.0533C17.0872 28.9714 17.1345 28.896 17.1345 28.8858C17.1345 28.8756 17.1508 28.8478 17.1712 28.8243C17.2236 28.762 17.344 28.5698 17.344 28.5473C17.344 28.5368 17.3492 28.5277 17.3544 28.5277C17.3605 28.5277 17.4023 28.4685 17.4474 28.3968C17.4924 28.3243 17.5343 28.2651 17.5416 28.2651C17.5476 28.2651 17.5537 28.2567 17.5537 28.2468C17.5537 28.225 17.6652 28.0389 17.7 28.0033C17.7131 27.9889 17.744 27.9387 17.7694 27.8897C17.7949 27.8403 17.8243 27.7931 17.8573 27.7483C17.8809 27.7201 17.9228 27.6536 17.9516 27.6012C17.9767 27.5525 18.0054 27.5057 18.0374 27.4612C18.0557 27.4376 18.0976 27.3743 18.1304 27.3211C18.2325 27.1494 18.3555 26.9612 18.3738 26.9468C18.3836 26.9385 18.3898 26.9268 18.3911 26.9141C18.3911 26.8957 18.4576 26.7905 18.5497 26.6646C18.5772 26.6269 18.6008 26.5868 18.6008 26.5756C18.6008 26.5654 18.6233 26.5256 18.651 26.4876C18.7408 26.3641 18.8094 26.2567 18.8094 26.2381C18.8094 26.229 18.8207 26.2107 18.833 26.1973C18.8461 26.1842 18.8932 26.1156 18.9382 26.0449L19.0191 25.9172V22.3096L19.0898 22.2114L19.1592 22.1133V19.8635C19.1592 17.3387 19.1592 17.352 19.2534 16.9298C19.2712 16.8483 19.294 16.7681 19.3217 16.6894C19.339 16.6444 19.3544 16.5973 19.3544 16.5853C19.3544 16.5216 19.5814 16.1863 19.6612 16.1311C19.6887 16.1117 19.7298 16.079 19.7534 16.0575C19.8217 15.9952 20.0466 15.8939 20.1848 15.8633L20.3942 15.8172C20.4445 15.8059 21.0181 15.7915 21.8262 15.7805L23.1728 15.763L23.1984 15.7251C23.2115 15.7036 23.2393 15.6638 23.2576 15.636L23.2924 15.5863L24.4222 15.5942C25.0453 15.5983 25.5531 15.5973 25.5531 15.5923C25.5531 15.586 25.5819 15.5421 25.6178 15.4942C25.6526 15.446 25.6976 15.3753 25.717 15.3366C25.7489 15.2794 25.784 15.224 25.8222 15.1709C25.8612 15.1188 25.9081 15.0431 25.9275 15.0044C25.9471 14.9654 25.9704 14.9266 25.9798 14.9164C26.0034 14.8918 26.3243 14.3855 26.3448 14.3405C26.3539 14.3201 26.4063 14.2413 26.4605 14.1638C26.5147 14.0871 26.5586 14.0154 26.5586 14.0052C26.5586 13.9949 26.5822 13.9562 26.6118 13.9172C26.6851 13.8211 26.7681 13.6881 26.7681 13.6667C26.7681 13.6575 26.7764 13.6431 26.7856 13.6353C26.8039 13.6206 26.9194 13.4439 27.0309 13.2588C27.0636 13.2046 27.1068 13.1392 27.1262 13.1156C27.1455 13.091 27.1793 13.0368 27.2008 12.996C27.2232 12.9514 27.2495 12.909 27.2793 12.869C27.3008 12.8402 27.3479 12.768 27.3827 12.7086C27.4165 12.6483 27.477 12.5531 27.5147 12.4957C27.5534 12.4387 27.6325 12.3159 27.6895 12.2227C27.7468 12.1308 27.7989 12.0541 27.805 12.0541C27.8102 12.0541 27.8154 12.046 27.8154 12.0347C27.8154 12.0133 27.9052 11.8711 27.9788 11.7758C28.0034 11.7423 28.0249 11.7075 28.0249 11.6963C28.0249 11.6858 28.072 11.6104 28.1293 11.5287C28.1866 11.447 28.2335 11.3719 28.2335 11.3617C28.2335 11.3515 28.2529 11.3188 28.2754 11.2892C28.2989 11.2596 28.3461 11.1889 28.3798 11.1326C28.4531 11.013 28.439 11.0358 28.5628 10.8423C28.616 10.7586 28.6885 10.6418 28.7225 10.5847C28.7571 10.5271 28.7898 10.4792 28.7958 10.4792C28.801 10.4792 28.8348 10.423 28.8707 10.3557C28.9052 10.2881 28.9421 10.2277 28.9513 10.2206C28.977 10.2002 29.072 10.0489 29.072 10.0274C29.072 10.0161 29.0832 9.99756 29.0966 9.98552C29.111 9.97217 29.1937 9.84835 29.2806 9.7083C29.3675 9.56824 29.4503 9.44442 29.4647 9.43107C29.479 9.41903 29.4903 9.40044 29.4903 9.38919C29.4903 9.36772 29.5681 9.24416 29.6476 9.13971C29.6764 9.10201 29.7 9.06196 29.7 9.0507C29.7 9.03945 29.7387 8.9761 29.7859 8.90961C29.8243 8.85653 29.8601 8.80157 29.8932 8.74495C29.9055 8.72139 29.9474 8.65411 29.9861 8.59678C30.0251 8.5384 30.0712 8.46589 30.0882 8.43421L30.1212 8.37793L22.416 8.37898C15.0728 8.38107 14.7047 8.3829 14.5654 8.41275" fill="#8C0BFB"/>
<path fill-rule="evenodd" clip-rule="evenodd" d="M19.7236 25.1053C19.7236 30.026 19.7257 32.0365 19.7278 29.5729C19.7299 27.1092 19.7296 23.0836 19.7278 20.6263C19.7257 18.17 19.7236 20.1854 19.7236 25.1051V25.1053ZM25.8702 16.1799C25.8874 16.1841 25.9162 16.1841 25.9335 16.1799C25.9508 16.1757 25.9367 16.1729 25.9021 16.1729C25.867 16.1729 25.8529 16.1757 25.8702 16.1799ZM29.0157 17.7844C29.0157 17.7875 29.0361 17.8132 29.0607 17.8407L29.1068 17.8927L29.0649 17.8354C29.027 17.7823 29.0157 17.77 29.0157 17.7844ZM22.0581 18.5095C22.0521 18.5215 23.139 18.5215 24.5901 18.5095C24.8927 18.5064 24.4487 18.5032 23.6032 18.5001C22.7566 18.498 22.0613 18.5022 22.0581 18.5092V18.5095ZM25.3466 18.5257C25.361 18.531 25.3825 18.531 25.3958 18.5257C25.4089 18.5215 25.3987 18.5176 25.3712 18.5176C25.3445 18.5176 25.3333 18.5215 25.3466 18.5255V18.5257ZM27.033 19.3283C27.0749 19.3807 27.1115 19.4244 27.1157 19.4244C27.1199 19.4244 27.088 19.3807 27.0471 19.3283C27.0218 19.2942 26.9941 19.2619 26.9644 19.2315C26.9602 19.2315 26.9908 19.2752 27.033 19.3283ZM29.8717 20.6231C29.8717 20.6812 29.8736 20.7027 29.8778 20.671C29.8809 20.6396 29.8809 20.5925 29.8767 20.5658C29.8736 20.5401 29.8715 20.5658 29.8715 20.6231H29.8717ZM27.539 20.842C27.539 20.8859 27.5422 20.9032 27.5453 20.8818C27.5484 20.8557 27.5484 20.8293 27.5453 20.8032C27.5422 20.7815 27.539 20.7988 27.539 20.842ZM29.8563 20.982C29.8563 21.0158 29.8594 21.0299 29.8623 21.0126C29.8664 20.9924 29.8664 20.9716 29.8623 20.9514C29.8594 20.9349 29.8563 20.9482 29.8563 20.982ZM27.539 21.2098C27.539 21.253 27.5422 21.2713 27.5453 21.249C27.5484 21.2228 27.5484 21.1962 27.5453 21.17C27.5422 21.1485 27.539 21.1671 27.539 21.21V21.2098ZM28.7702 23.6477L28.7293 23.7051L28.7744 23.6527C28.8173 23.6048 28.8267 23.5907 28.8152 23.5907C28.8131 23.5907 28.7927 23.616 28.7702 23.6477ZM25.1513 23.7079C25.1675 23.7121 25.1844 23.7121 25.2005 23.7079C25.2136 23.703 25.2026 23.7001 25.1759 23.7001C25.1492 23.7001 25.1382 23.703 25.1513 23.7079ZM24.9775 23.7255C24.9981 23.7296 25.0194 23.7296 25.0401 23.7255C25.0573 23.7215 25.0429 23.7184 25.0084 23.7184C24.9738 23.7184 24.9602 23.7215 24.9775 23.7255ZM22.7372 23.7438C23.1194 23.7469 23.7424 23.7469 24.1196 23.7438C24.4969 23.742 24.184 23.7386 23.4244 23.7386C22.6636 23.7386 22.3547 23.742 22.7372 23.7438ZM29.6089 25.9192C29.6621 25.9865 29.7092 26.0417 29.7131 26.0417C29.7162 26.0417 29.6765 25.9865 29.623 25.9189C29.5699 25.8514 29.523 25.7961 29.5189 25.7961C29.5147 25.7961 29.5555 25.8514 29.6089 25.9192ZM25.2843 25.9496C25.3097 25.9537 25.3477 25.9537 25.3681 25.9496C25.3895 25.9456 25.3691 25.9425 25.323 25.9425C25.2759 25.9425 25.2597 25.9456 25.2843 25.9496ZM25.5429 25.966C25.556 25.9713 25.5778 25.9713 25.5911 25.966C25.6042 25.9619 25.594 25.9579 25.5665 25.9579C25.5398 25.9579 25.5285 25.9619 25.5429 25.9658V25.966ZM27.6477 26.9263C27.6966 26.9886 27.7406 27.0396 27.7445 27.0396C27.7477 27.0396 27.7107 26.9886 27.6607 26.9263C27.6311 26.8861 27.599 26.8478 27.5647 26.8116C27.5605 26.8116 27.5974 26.8629 27.6474 26.9263H27.6477ZM28.2107 28.8077C28.2107 28.9181 28.2128 28.9642 28.216 28.9079C28.2191 28.8411 28.2191 28.7742 28.216 28.7074C28.2128 28.6524 28.2107 28.6972 28.2107 28.8077ZM30.5833 28.7637C30.5833 28.8221 30.5864 28.8435 30.5893 28.8119C30.5924 28.7802 30.5924 28.7333 30.5893 28.7066C30.5864 28.681 30.5833 28.7066 30.5833 28.7637ZM30.5833 29.2189C30.5833 29.277 30.5864 29.2985 30.5893 29.2668C30.5924 29.2354 30.5924 29.1883 30.5893 29.1616C30.5864 29.1359 30.5833 29.1616 30.5833 29.2189ZM27.6393 30.7383L27.5707 30.8294L27.6435 30.7435C27.6843 30.6954 27.7168 30.6535 27.7168 30.6514C27.7168 30.6383 27.7037 30.6524 27.6393 30.7383ZM30.1702 31.2854C30.1571 31.3192 30.1497 31.3467 30.1529 31.3467C30.1631 31.3467 30.205 31.2393 30.1987 31.2315C30.1958 31.227 30.1825 31.2516 30.1699 31.2854H30.1702ZM25.4029 31.7087C25.4244 31.7129 25.4579 31.7129 25.4796 31.7087C25.5013 31.7045 25.4835 31.7016 25.4416 31.7016C25.3987 31.7016 25.3814 31.7048 25.4029 31.7087ZM29.5526 32.3663L29.4974 32.4399L29.5568 32.3715C29.6118 32.3069 29.6223 32.2917 29.6118 32.2917C29.61 32.2917 29.5822 32.3255 29.5526 32.3663ZM26.1147 34.0373C26.1307 34.0413 26.1476 34.0413 26.1636 34.0373C26.177 34.032 26.1657 34.0291 26.1393 34.0291C26.1126 34.0291 26.1013 34.032 26.1147 34.037V34.0373ZM25.6963 34.0556C25.7414 34.0587 25.81 34.0587 25.8497 34.0556C25.8906 34.0514 25.8539 34.0485 25.7691 34.0485C25.6854 34.0485 25.6524 34.0514 25.6963 34.0556Z" fill="#A86BEE"/>
<path fill-rule="evenodd" clip-rule="evenodd" d="M21.2073 16.1639C22.0233 16.166 23.3589 16.166 24.1749 16.1639C24.9898 16.1618 24.323 16.1597 22.6911 16.1597C21.0592 16.1597 20.3914 16.1618 21.2073 16.1639ZM28.939 17.6743C28.977 17.7222 29.0105 17.7612 29.0149 17.7612C29.0189 17.7612 28.9901 17.7222 28.9521 17.6743C28.9141 17.6264 28.8806 17.5864 28.8767 17.5864C28.8736 17.5864 28.9011 17.6262 28.939 17.6743ZM25.1801 18.5269C25.2089 18.5311 25.256 18.5311 25.2843 18.5269C25.3131 18.523 25.2895 18.5199 25.2322 18.5199C25.1749 18.5199 25.1505 18.523 25.1801 18.5269ZM22.056 21.1317C22.056 22.5662 22.0571 23.15 22.0592 22.4301C22.0612 21.5606 22.0612 20.6912 22.0592 19.8217C22.0571 19.107 22.056 19.6968 22.056 21.1317ZM29.8707 20.7809C29.8707 20.8196 29.8738 20.833 29.8767 20.8115C29.8808 20.7885 29.8808 20.7649 29.8767 20.7419C29.8738 20.7246 29.8707 20.7429 29.8707 20.7809ZM27.5403 21.0262C27.5403 21.0937 27.5432 21.1194 27.5463 21.0824C27.5489 21.0419 27.5489 21.0013 27.5463 20.9607C27.5424 20.9293 27.5403 20.9586 27.5403 21.0262ZM26.9911 22.7942C26.9573 22.8382 26.9327 22.8728 26.9369 22.8728C26.9401 22.8728 26.9717 22.8382 27.0055 22.7942C27.0393 22.7513 27.0636 22.7157 27.0597 22.7157C27.0347 22.7399 27.0117 22.7662 26.9911 22.7942ZM22.056 28.8256V31.7052L23.7136 31.706H25.3712L23.7168 31.7008L22.0631 31.6968L22.0592 28.8214L22.056 25.9461V28.8256ZM25.1728 25.9502C25.1914 25.954 25.2106 25.9536 25.2291 25.9492C25.2422 25.945 25.228 25.9421 25.1974 25.9421C25.1668 25.9421 25.1555 25.945 25.1728 25.95V25.9502ZM29.4471 32.4981L29.399 32.5636L29.4521 32.5034C29.5003 32.4471 29.5105 32.4327 29.5003 32.4327C29.4806 32.4529 29.4629 32.4748 29.4471 32.4981Z" fill="#9C3CF4"/>
</svg>
