<svg width="50" height="50" viewBox="0 0 50 50" fill="none" xmlns="http://www.w3.org/2000/svg">
<circle cx="25" cy="25" r="25" fill="white"/>
<path d="M13.1031 40.5158L10.4712 10.9946H39.3927L36.7581 40.5114L24.9144 43.7949L13.1031 40.5158Z" fill="#1572B6"/>
<path d="M24.9323 41.2852L34.5027 38.6318L36.7542 13.4082H24.9323V41.2852Z" fill="#33A9DC"/>
<path d="M24.9323 24.1037H29.7234L30.0542 20.3961H24.9323V16.7754H34.0113L33.9244 17.7469L33.0343 27.7243H24.9323V24.1037Z" fill="white"/>
<path d="M24.9537 33.5069L24.9378 33.5116L20.9056 32.4229L20.6477 29.5352H17.0137L17.5207 35.2202L24.9372 37.2786L24.9537 37.2739V33.5069Z" fill="#EBEBEB"/>
<path d="M29.4155 27.5713L28.9794 32.42L24.9412 33.51V37.277L32.3637 35.22L32.4182 34.6082L33.048 27.5713H29.4155Z" fill="white"/>
<path d="M24.9445 16.7754V20.3961H16.199L16.1264 19.5825L15.9615 17.7469L15.8749 16.7754H24.9445ZM24.9322 24.1042V27.7249H20.9508L20.8783 26.9113L20.7131 25.0757L20.6267 24.1042H24.9322Z" fill="#EBEBEB"/>
</svg>
