<svg width="50" height="50" viewBox="0 0 50 50" fill="none" xmlns="http://www.w3.org/2000/svg">
<circle cx="25" cy="25" r="25" fill="white"/>
<path d="M19.5027 41.885C22.6178 41.885 25.1309 39.3719 25.1309 36.2567V30.6284H19.5027C16.3875 30.6284 13.8744 33.1415 13.8744 36.2567C13.8744 39.3719 16.3875 41.885 19.5027 41.885Z" fill="#0ACF83"/>
<path d="M13.8744 25.0003C13.8744 21.8852 16.3875 19.3721 19.5027 19.3721H25.1309V30.6286H19.5027C16.3875 30.6286 13.8744 28.1155 13.8744 25.0003Z" fill="#A259FF"/>
<path d="M13.8744 13.7435C13.8744 10.6283 16.3875 8.11523 19.5027 8.11523H25.1309V19.3718H19.5027C16.3875 19.3718 13.8744 16.8587 13.8744 13.7435Z" fill="#F24E1E"/>
<path d="M25.1309 8.11523H30.7592C33.8744 8.11523 36.3875 10.6283 36.3875 13.7435C36.3875 16.8587 33.8744 19.3718 30.7592 19.3718H25.1309V8.11523Z" fill="#FF7262"/>
<path d="M36.3874 25.0003C36.3874 28.1155 33.8743 30.6286 30.7591 30.6286C27.6439 30.6286 25.1309 28.1155 25.1309 25.0003C25.1309 21.8852 27.6439 19.3721 30.7591 19.3721C33.8743 19.3721 36.3874 21.8852 36.3874 25.0003Z" fill="#1ABCFE"/>
</svg>
