<svg width="50" height="50" viewBox="0 0 50 50" fill="none" xmlns="http://www.w3.org/2000/svg">
<circle cx="25" cy="25" r="25" fill="white"/>
<path d="M40.7995 23.4279L26.3712 9.00012C25.5409 8.16923 24.1932 8.16923 23.3616 9.00012L20.3658 11.9965L24.1663 15.797C25.0498 15.4988 26.0623 15.6988 26.7663 16.4027C27.4739 17.1111 27.6723 18.1323 27.3668 19.0187L31.0296 22.6818C31.9158 22.3763 32.9385 22.5737 33.6459 23.2826C34.6354 24.2713 34.6354 25.8742 33.6459 26.8635C33.4107 27.0987 33.1315 27.2854 32.8242 27.4127C32.5169 27.54 32.1875 27.6056 31.8549 27.6056C31.5222 27.6056 31.1929 27.54 30.8856 27.4127C30.5783 27.2854 30.2991 27.0987 30.0639 26.8635C29.7106 26.51 29.4698 26.0598 29.3717 25.5697C29.2737 25.0797 29.3228 24.5715 29.5129 24.1093L26.0972 20.6936L26.0966 29.6834C26.3445 29.8054 26.5707 29.967 26.7665 30.1619C27.7555 31.1506 27.7555 32.753 26.7665 33.7438C25.7773 34.7326 24.1739 34.7326 23.1856 33.7438C22.1966 32.7533 22.1966 31.1509 23.1856 30.1619C23.4226 29.9246 23.7044 29.7368 24.0147 29.6095V20.5365C23.7042 20.4096 23.4223 20.2217 23.1856 19.9839C22.4364 19.2352 22.2561 18.1357 22.6404 17.2153L18.8935 13.4684L9.0003 23.3611C8.60117 23.7604 8.37695 24.3018 8.37695 24.8664C8.37695 25.4309 8.60117 25.9723 9.0003 26.3716L23.4288 40.7993C24.2597 41.6302 25.6068 41.6302 26.439 40.7993L40.7998 26.4386C41.1988 26.0392 41.423 25.4978 41.4229 24.9332C41.4229 24.3686 41.1986 23.8272 40.7995 23.4279Z" fill="#F34F29"/>
</svg>
