<svg width="50" height="50" viewBox="0 0 50 50" fill="none" xmlns="http://www.w3.org/2000/svg">
<circle cx="25" cy="25" r="25" fill="white"/>
<path fill-rule="evenodd" clip-rule="evenodd" d="M24.9707 9.68604C16.2411 9.68604 9.16235 16.7633 9.16235 25.4944C9.16235 32.4792 13.6919 38.4046 19.9731 40.4952C20.7629 40.6418 21.0529 40.1523 21.0529 39.7347C21.0529 39.3578 21.0383 38.1125 21.0315 36.7915C16.6336 37.7478 15.7055 34.9264 15.7055 34.9264C14.9864 33.0991 13.9503 32.6133 13.9503 32.6133C12.5158 31.6321 14.0584 31.6525 14.0584 31.6525C15.6456 31.7638 16.4817 33.2816 16.4817 33.2816C17.8917 35.6978 20.1799 34.9994 21.082 34.5957C21.2239 33.574 21.6336 32.8764 22.0857 32.4816C18.5744 32.0824 14.883 30.7266 14.883 24.6693C14.883 22.9434 15.5008 21.5332 16.5121 20.4258C16.3477 20.0279 15.8066 18.4201 16.665 16.2426C16.665 16.2426 17.9922 15.8177 21.0131 17.863C22.2744 17.5125 23.627 17.3363 24.9707 17.3303C26.3137 17.3363 27.6671 17.512 28.9307 17.8625C31.948 15.8172 33.2736 16.2421 33.2736 16.2421C34.1341 18.4193 33.593 20.0274 33.4288 20.4253C34.4425 21.5326 35.0558 22.9428 35.0558 24.6688C35.0558 30.7405 31.3576 32.0771 27.8375 32.4688C28.4048 32.9593 28.91 33.9216 28.91 35.3962C28.91 37.5114 28.8917 39.2138 28.8917 39.7345C28.8917 40.1551 29.1765 40.6481 29.9775 40.4928C36.255 38.4002 40.7794 32.4766 40.7794 25.4944C40.7791 16.7638 33.7011 9.6863 24.9707 9.6863V9.68604Z" fill="#181616"/>
<path d="M15.1497 32.3828C15.1149 32.4614 14.9913 32.4849 14.8788 32.4313C14.7636 32.38 14.6995 32.2729 14.7366 32.1941C14.7707 32.1129 14.8945 32.0907 15.0089 32.1449C15.1241 32.1964 15.1895 32.3046 15.1495 32.3831L15.1497 32.3828ZM15.79 33.0972C15.7149 33.1671 15.5675 33.1347 15.4675 33.0239C15.3639 32.914 15.3445 32.7666 15.4212 32.6957C15.4992 32.626 15.6421 32.659 15.7458 32.769C15.8489 32.8805 15.8694 33.0266 15.7903 33.0975L15.79 33.0972ZM16.4136 34.0074C16.3167 34.075 16.1581 34.0119 16.0602 33.8713C15.9633 33.7305 15.9633 33.5616 16.0628 33.4944C16.1605 33.4268 16.3167 33.4878 16.4162 33.6271C16.5126 33.7697 16.5126 33.9386 16.4136 34.0072V34.0074ZM17.2673 34.8873C17.1809 34.9828 16.9961 34.9572 16.861 34.8271C16.723 34.6996 16.6845 34.5182 16.7712 34.4229C16.8592 34.3271 17.0448 34.3538 17.1806 34.4831C17.3186 34.6103 17.3602 34.792 17.2678 34.887L17.2673 34.8873ZM18.4453 35.398C18.4068 35.5218 18.2293 35.5781 18.05 35.5252C17.8712 35.4711 17.7542 35.3263 17.7908 35.2012C17.8275 35.0763 18.0063 35.0179 18.1866 35.0742C18.3654 35.1281 18.4824 35.2721 18.4453 35.398ZM19.7393 35.4925C19.7437 35.6229 19.5919 35.7307 19.4042 35.7334C19.2149 35.7378 19.0618 35.632 19.0599 35.5038C19.0599 35.3721 19.2086 35.2656 19.3976 35.2619C19.5853 35.2585 19.7395 35.3632 19.7395 35.4923L19.7393 35.4925ZM20.9429 35.2878C20.9654 35.4148 20.8348 35.5454 20.6482 35.5802C20.4649 35.6142 20.2948 35.5352 20.2712 35.4093C20.2487 35.2789 20.3817 35.1483 20.5649 35.1145C20.7518 35.0823 20.9194 35.159 20.9429 35.2881V35.2878Z" fill="#181616"/>
</svg>
