<svg width="50" height="50" viewBox="0 0 50 50" fill="none" xmlns="http://www.w3.org/2000/svg">
<circle cx="25" cy="25" r="25" fill="white"/>
<path d="M12.8285 39.8468L10.2094 10.4712H38.9885L36.3665 39.8424L24.5814 43.1094L12.8285 39.8468Z" fill="#E44D26"/>
<path d="M24.5989 40.6123L34.1219 37.972L36.3625 12.873H24.5989V40.6123Z" fill="#F16529"/>
<path d="M24.5988 23.7682H19.8313L19.502 20.0787H24.5988V16.4761H15.5645L15.6509 17.4426L16.5363 27.3711H24.5988V23.7682ZM24.5988 33.125L24.5829 33.1295L20.5706 32.0457L20.3143 29.1727H16.6973L17.202 34.8295L24.5823 36.8782L24.5988 36.8737V33.125Z" fill="#EBEBEB"/>
<path d="M24.5864 23.7682V27.3711H29.0228L28.6047 32.0436L24.5864 33.1282V36.8766L31.9725 34.8295L32.0267 34.2208L32.8733 24.7358L32.961 23.7682H31.9903H24.5864ZM24.5864 16.4761V20.0787H33.289L33.3612 19.2693L33.5256 17.4426L33.6118 16.4761H24.5864Z" fill="white"/>
</svg>
