<svg width="50" height="50" viewBox="0 0 50 50" fill="none" xmlns="http://www.w3.org/2000/svg">
<circle cx="25" cy="25" r="25" fill="white"/>
<path d="M8.63867 8.63916H41.4094V41.4101H8.63867V8.63916Z" fill="#F0DB4F"/>
<path d="M38.7274 33.5942C38.4873 32.0992 37.5124 30.8435 34.6247 29.6725C33.6216 29.2115 32.5033 28.8814 32.17 28.1212C32.0517 27.6788 32.036 27.4296 32.1109 27.1618C32.3258 26.2927 33.3632 26.0217 34.1855 26.2709C34.7151 26.4484 35.2164 26.8565 35.5187 27.5076C36.9329 26.5919 36.93 26.5979 37.9174 25.9686C37.5559 25.4081 37.363 25.1495 37.1263 24.9097C36.2758 23.9597 35.1169 23.4704 33.2635 23.5079L32.298 23.6327C31.3729 23.8665 30.4912 24.3521 29.9742 25.0031C28.4229 26.7634 28.8653 29.844 30.753 31.1118C32.6127 32.5076 35.3446 32.8251 35.6936 34.1304C36.0331 35.7283 34.5192 36.2456 33.0145 36.0618C31.9056 35.8312 31.2889 35.2675 30.6221 34.2427C29.3949 34.9529 29.3949 34.9529 28.1331 35.6785C28.4323 36.3327 28.7467 36.6288 29.2483 37.1956C31.6221 39.6034 37.5624 39.4851 38.6279 35.8406C38.6711 35.7154 38.958 34.8809 38.7274 33.5942ZM26.4538 23.7008H23.3886L23.3761 31.6254C23.3761 33.3107 23.4632 34.8558 23.1891 35.3293C22.7407 36.2607 21.5787 36.1453 21.0491 35.9647C20.5101 35.6997 20.236 35.323 19.9185 34.7906C19.8313 34.6377 19.7658 34.5194 19.7439 34.5102L17.2517 36.0364C17.6661 36.8869 18.2766 37.6251 19.0585 38.1047C20.2266 38.8058 21.7965 39.0207 23.4384 38.6437C24.5069 38.3325 25.4289 37.6877 25.9117 36.7063C26.6096 35.4196 26.4598 33.8623 26.4535 32.1398C26.4692 29.3296 26.4538 26.5199 26.4538 23.7008Z" fill="#323330"/>
</svg>
