<svg width="50" height="50" viewBox="0 0 50 50" fill="none" xmlns="http://www.w3.org/2000/svg">
<circle cx="25" cy="25" r="25" fill="white"/>
<path d="M25.0262 28.0887C26.6744 28.0887 28.0105 26.7526 28.0105 25.1044C28.0105 23.4562 26.6744 22.1201 25.0262 22.1201C23.378 22.1201 22.0419 23.4562 22.0419 25.1044C22.0419 26.7526 23.378 28.0887 25.0262 28.0887Z" fill="#61DAFB"/>
<path d="M36.3612 20.1832C35.7853 19.9738 35.1832 19.7644 34.555 19.5811C34.712 18.9529 34.8429 18.3246 34.9476 17.7225C35.4974 14.267 34.8953 11.8324 33.2199 10.89C32.7225 10.6021 32.1728 10.4712 31.5445 10.4712C29.712 10.4712 27.3822 11.8324 25.0262 14.1099C22.6701 11.8324 20.3403 10.4712 18.5078 10.4712C17.8796 10.4712 17.3298 10.6021 16.8325 10.89C15.1571 11.8586 14.555 14.2932 15.1047 17.7225C15.2094 18.3246 15.3403 18.9529 15.4974 19.5811C14.8691 19.7644 14.267 19.9476 13.6911 20.1832C10.4188 21.4398 8.63873 23.1675 8.63873 25.1047C8.63873 27.0419 10.445 28.7696 13.6911 30.0262C14.267 30.2356 14.8691 30.445 15.4974 30.6283C15.3403 31.2565 15.2094 31.8848 15.1047 32.4869C14.555 35.9424 15.1571 38.377 16.8325 39.3194C17.3298 39.6073 17.8796 39.7382 18.5078 39.7382C20.3665 39.7382 22.6963 38.377 25.0262 36.0995C27.3822 38.377 29.712 39.7382 31.5445 39.7382C32.1728 39.7382 32.7225 39.6073 33.2199 39.3194C34.8953 38.3508 35.4974 35.9162 34.9476 32.4869C34.8429 31.8848 34.712 31.2565 34.555 30.6283C35.1832 30.445 35.7853 30.2618 36.3612 30.0262C39.6335 28.7696 41.4136 27.0419 41.4136 25.1047C41.4136 23.1675 39.6335 21.4398 36.3612 20.1832ZM32.4869 12.1989C33.5602 12.8272 33.9267 14.7644 33.4817 17.5131C33.4031 18.0628 33.2722 18.6387 33.1152 19.2408C31.7539 18.9267 30.3141 18.7173 28.7958 18.5864C27.9057 17.3298 26.9895 16.2042 26.0733 15.1832C28.0105 13.2722 29.9738 11.9633 31.5707 11.9633C31.911 11.9633 32.2251 12.0419 32.4869 12.1989ZM29.555 27.7225C29.0838 28.5602 28.534 29.3979 27.9581 30.2356C26.9895 30.3141 26.0209 30.3403 25.0262 30.3403C24.0052 30.3403 23.0366 30.3141 22.0942 30.2356C21.5183 29.3979 20.9948 28.5602 20.5235 27.7225C20.0262 26.8586 19.555 25.9686 19.1361 25.1047C19.555 24.2408 20.0262 23.3508 20.5235 22.4869C20.9948 21.6492 21.5445 20.8115 22.1204 19.9738C23.089 19.8953 24.0576 19.8691 25.0523 19.8691C26.0733 19.8691 27.0419 19.8953 27.9843 19.9738C28.5602 20.8115 29.0838 21.6492 29.555 22.4869C30.0523 23.3508 30.5236 24.2408 30.9424 25.1047C30.4974 25.9686 30.0523 26.8324 29.555 27.7225ZM31.7277 26.8586C32.1204 27.7749 32.4345 28.6649 32.7225 29.555C31.8325 29.7644 30.89 29.9215 29.8953 30.0523C30.2094 29.555 30.5497 29.0314 30.8377 28.4817C31.1518 27.9319 31.4398 27.3822 31.7277 26.8586ZM25.0262 33.9529C24.3979 33.2722 23.7958 32.5393 23.2199 31.7801C23.822 31.8063 24.4241 31.8324 25.0262 31.8324C25.6283 31.8324 26.2304 31.8063 26.8325 31.7801C26.2565 32.5393 25.6544 33.2722 25.0262 33.9529ZM20.1571 30.0262C19.1623 29.8953 18.2199 29.7382 17.3298 29.5288C17.6178 28.6649 17.9319 27.7487 18.3246 26.8324C18.6126 27.356 18.9005 27.9057 19.2146 28.4293C19.5288 29.0052 19.8429 29.5026 20.1571 30.0262ZM18.3246 23.3508C17.9319 22.4345 17.6178 21.5445 17.3298 20.6544C18.2199 20.445 19.1623 20.2879 20.1571 20.1571C19.8429 20.6544 19.5026 21.178 19.2146 21.7277C18.9005 22.2775 18.6126 22.8272 18.3246 23.3508ZM25.0262 16.2565C25.6544 16.9372 26.2565 17.6701 26.8325 18.4293C26.2304 18.4031 25.6283 18.377 25.0262 18.377C24.4241 18.377 23.822 18.4031 23.2199 18.4293C23.7958 17.6701 24.3979 16.9372 25.0262 16.2565ZM30.8377 21.7539L29.8953 20.1832C30.89 20.3141 31.8325 20.4712 32.7225 20.6806C32.4345 21.5445 32.1204 22.4607 31.7277 23.377C31.4398 22.8272 31.1518 22.2775 30.8377 21.7539ZM16.5707 17.5131C16.1256 14.7644 16.4921 12.8272 17.5654 12.1989C17.8272 12.0419 18.1414 11.9633 18.4817 11.9633C20.0523 11.9633 22.0157 13.2461 23.979 15.1832C23.0628 16.178 22.1466 17.3298 21.2565 18.5864C19.7382 18.7173 18.2984 18.9529 16.9372 19.2408C16.7801 18.6387 16.6754 18.0628 16.5707 17.5131ZM10.1047 25.1047C10.1047 23.8743 11.5968 22.5654 14.2146 21.5968C14.7382 21.3874 15.3141 21.2042 15.89 21.0471C16.3089 22.356 16.8324 23.7434 17.4607 25.1309C16.8324 26.5183 16.2827 27.8796 15.89 29.1885C12.2775 28.1413 10.1047 26.5707 10.1047 25.1047ZM17.5654 38.0105C16.4921 37.3822 16.1256 35.445 16.5707 32.6963C16.6492 32.1466 16.7801 31.5707 16.9372 30.9686C18.2984 31.2827 19.7382 31.4921 21.2565 31.623C22.1466 32.8796 23.0628 34.0052 23.979 35.0262C22.0419 36.9372 20.0785 38.2461 18.4817 38.2461C18.1414 38.2461 17.8272 38.1675 17.5654 38.0105ZM33.4817 32.6963C33.9267 35.445 33.5602 37.3822 32.4869 38.0105C32.2251 38.1675 31.911 38.2461 31.5707 38.2461C30 38.2461 28.0366 36.9633 26.0733 35.0262C26.9895 34.0314 27.9057 32.8796 28.7958 31.623C30.3141 31.4921 31.7539 31.2565 33.1152 30.9686C33.2722 31.5707 33.377 32.1466 33.4817 32.6963ZM35.8377 28.6126C35.3141 28.822 34.7382 29.0052 34.1623 29.1623C33.7434 27.8534 33.2199 26.466 32.5916 25.0785C33.2199 23.6911 33.7696 22.3298 34.1623 21.0209C37.7749 22.0681 39.9476 23.6387 39.9476 25.1047C39.9476 26.3351 38.4293 27.644 35.8377 28.6126Z" fill="#61DAFB"/>
</svg>
