<svg width="50" height="50" viewBox="0 0 50 50" fill="none" xmlns="http://www.w3.org/2000/svg">
<circle cx="25" cy="25" r="25" fill="white"/>
<path fill-rule="evenodd" clip-rule="evenodd" d="M8.63867 23.0779C8.63867 23.2619 8.69286 23.3834 8.72323 23.5015C8.92113 24.2693 9.34653 24.9282 9.85124 25.5292C10.5701 26.3857 11.4505 27.0753 12.3523 27.7237C13.1345 28.286 13.9327 28.8358 14.718 29.3939C14.8528 29.4897 14.9803 29.5999 15.1266 29.7174C15.0007 29.7855 14.896 29.8454 14.7871 29.9007C13.7507 30.4263 12.7536 31.0156 11.8345 31.7295C11.2806 32.1598 10.745 32.6172 10.3667 33.2148C9.75804 34.1761 9.5426 35.2001 9.99626 36.2936C10.1287 36.613 10.3308 36.8889 10.6159 37.0928C10.7083 37.1588 10.812 37.2242 10.9201 37.2499C11.197 37.3151 11.4792 37.3577 11.7596 37.4093L12.5536 37.4088C13.4316 37.3305 14.2308 37.0297 14.9531 36.5313C16.0819 35.7522 16.8423 34.7077 17.1693 33.3672C17.407 32.3928 17.4167 31.4174 17.1366 30.4475C17.1098 30.3577 17.0788 30.2691 17.0439 30.1821C17.0099 30.0949 16.9698 30.0101 16.9227 29.9015L18.7227 28.8664L18.7497 28.8894C18.7169 28.9965 18.6821 29.1033 18.6525 29.2114C18.4387 29.9926 18.2965 30.7873 18.3476 31.5981C18.402 32.4619 18.6431 33.2706 19.1489 33.9923C19.5578 34.5761 20.5321 34.5978 20.9667 34.0119C21.1209 33.8038 21.2703 33.5863 21.3826 33.3541C21.6761 32.7481 21.9478 32.1313 22.2282 31.5187L22.2772 31.4067C22.257 31.6967 22.2334 31.9515 22.2227 32.2064C22.2059 32.6046 22.2292 33.0004 22.3654 33.3792C22.4819 33.7033 22.68 33.9454 23.0512 33.9881C23.3052 34.0172 23.5075 33.9009 23.6942 33.7535C23.9833 33.525 24.223 33.2401 24.3986 32.9161C24.8963 32.0022 25.4073 31.0939 25.8583 30.157C26.3463 29.1436 26.773 28.1007 27.2261 27.07L27.301 26.8873C27.408 27.308 27.4826 27.72 27.6201 28.1101C27.7798 28.5627 27.9774 29.0046 28.1926 29.4342C28.2944 29.6371 28.2826 29.7687 28.1416 29.9389C27.551 30.6509 26.9706 31.3716 26.3897 32.0915C26.2612 32.2504 26.1332 32.4122 26.0261 32.5858C25.9611 32.6954 25.9184 32.8167 25.9004 32.9428C25.8824 33.0589 25.9101 33.1775 25.9776 33.2737C26.0451 33.3699 26.1472 33.4362 26.2625 33.4588C26.4952 33.5089 26.7339 33.5259 26.9714 33.5093C27.7821 33.4496 28.5182 33.1651 29.169 32.6829C30.0122 32.0583 30.2829 31.2059 30.0787 30.1957C30.0235 29.9216 29.9258 29.6551 29.8308 29.391C29.7881 29.2719 29.7853 29.1884 29.863 29.0774C30.5371 28.1148 31.113 27.0936 31.6486 26.0488C31.6698 26.0077 31.6915 25.9666 31.7287 25.9227C31.9023 26.8258 32.1635 27.6962 32.6316 28.486C32.3929 28.7161 32.1565 28.9248 31.9426 29.1546C31.4717 29.6609 31.0633 30.2106 30.8502 30.881C30.7586 31.17 30.6881 31.4638 30.729 31.7724C30.7923 32.2517 31.185 32.5632 31.6565 32.4541C32.6654 32.2206 33.5363 31.7452 34.1727 30.903C34.601 30.336 34.64 29.7036 34.4607 29.041C34.4114 28.8609 34.3531 28.6837 34.2902 28.4771C34.5392 28.3999 34.7819 28.3072 35.0329 28.2499C36.3363 27.9525 37.6256 28.0043 38.8816 28.475C39.6148 28.7499 40.2073 29.2098 40.5586 29.9334C40.9876 30.8179 40.7504 31.6572 39.9167 32.2164C39.8389 32.2685 39.7499 32.3096 39.6855 32.3748C39.6649 32.3987 39.6495 32.4266 39.6402 32.4568C39.631 32.487 39.6281 32.5188 39.6319 32.5501C39.6374 32.5823 39.7224 32.6227 39.7714 32.6221C40.0455 32.62 40.2677 32.4763 40.4811 32.3287C41.0156 31.9588 41.4057 31.4611 41.4897 30.8059L41.5062 30.7567L41.486 30.33C41.4779 30.3054 41.4921 30.281 41.4902 30.2625C41.3766 29.3083 40.8669 28.5682 40.1256 27.9881C39.2669 27.3166 38.2531 27.0402 37.1808 26.9965C36.3112 26.9591 35.4427 27.0927 34.6245 27.3899C34.3897 27.475 34.157 27.5758 33.9209 27.6708C33.8892 27.6135 33.8552 27.5585 33.8272 27.5017C33.5847 27.0054 33.291 26.531 33.2261 25.9619C33.18 25.5577 33.1235 25.1541 33.2196 24.7543C33.312 24.3698 33.4324 23.9918 33.5457 23.6125C33.6041 23.4172 33.563 23.3077 33.3766 23.2198C33.3117 23.1874 33.2424 23.1646 33.1709 23.1522C32.7128 23.0858 32.2609 23.1237 31.8172 23.2528C31.6601 23.2986 31.546 23.3865 31.5112 23.5604C31.4913 23.6601 31.4507 23.7556 31.4224 23.8541C31.3065 24.2632 31.2243 24.6803 31.0368 25.07C30.5672 26.0478 30.0311 26.9886 29.4824 27.9227C29.423 28.0234 29.3604 28.1224 29.2855 28.2447C29.0929 27.8415 28.8874 27.4797 28.8251 27.0556C28.7546 26.5761 28.6991 26.0973 28.8185 25.6214C28.9073 25.2664 29.0232 24.9179 29.13 24.5677C29.1806 24.4012 29.1573 24.3138 29.0065 24.2261C28.9303 24.1818 28.8442 24.1426 28.7583 24.1297C28.2886 24.0582 27.8086 24.0974 27.3567 24.2444C27.2146 24.2905 27.14 24.3823 27.0965 24.5289C26.9688 24.9614 26.8599 25.4043 26.6806 25.8156C25.9544 27.4805 25.2073 29.1368 24.4609 30.7928C24.3052 31.1386 24.1227 31.4724 23.947 31.809C23.9025 31.8944 23.8376 31.9695 23.7821 32.0496C23.7376 31.997 23.7203 31.9609 23.7206 31.9248C23.7219 31.7119 23.6965 31.4928 23.7371 31.2871C23.8617 30.6648 23.9994 30.0452 24.1502 29.4287C24.2732 28.9193 24.4164 28.4145 24.5528 27.9085C24.5986 27.7392 24.5994 27.5808 24.4777 27.4384C24.2732 27.1999 23.846 27.1475 23.5926 27.3313L23.4806 27.3947L23.5023 27.214C23.5557 26.8269 23.5664 26.441 23.4601 26.0596C23.3277 25.5842 22.9884 25.3106 22.4952 25.3258C22.2654 25.3329 22.024 25.3721 21.8112 25.4559C20.9162 25.8067 20.2279 26.4279 19.6421 27.1753C19.5878 27.2447 19.5205 27.3028 19.4439 27.3465C18.6866 27.7664 17.9269 28.181 17.1675 28.5973L16.3222 29.0604C16.0955 28.8441 15.8895 28.6198 15.6557 28.4295C14.9418 27.8473 14.2164 27.2795 13.4976 26.7038C12.8604 26.1936 12.2431 25.6622 11.7709 24.9865C11.4196 24.4839 11.1931 23.9339 11.1714 23.3125C11.1439 22.5206 11.3685 21.797 11.7717 21.1234C12.2874 20.2617 12.9908 19.57 13.7641 18.9436C14.5821 18.2813 15.4669 17.719 16.384 17.2056C17.6669 16.4876 18.9866 15.852 20.4015 15.4323C21.8523 15.002 23.3243 14.7556 24.8426 14.9274C25.4395 14.9949 26.019 15.1316 26.5512 15.4234C26.9588 15.6467 27.2931 15.9392 27.4486 16.3962C27.602 16.846 27.5973 17.3017 27.491 17.7585C27.2751 18.6837 26.7685 19.4462 26.1311 20.1276C25.0855 21.2447 23.8101 22.0051 22.3743 22.5075C21.5487 22.7967 20.6897 22.9799 19.818 23.0528C19.1036 23.1127 18.4041 23.0494 17.7277 22.8009C17.2798 22.6363 16.8897 22.3844 16.5761 22.019C16.5201 21.9536 16.4484 21.8826 16.3439 21.9439C16.2416 22.0041 16.2235 22.1015 16.2578 22.2001C16.3151 22.364 16.368 22.5347 16.4573 22.6813C16.6816 23.0491 17.0088 23.3159 17.369 23.5447C18.0609 23.9847 18.8342 24.1326 19.6361 24.1669C20.8528 24.2195 22.04 24.0378 23.2104 23.7114C24.8813 23.2454 26.3342 22.4224 27.4994 21.124C28.4696 20.0428 29.1625 18.8227 29.3109 17.3494C29.3834 16.6303 29.3062 15.9258 28.9696 15.2698C28.6044 14.5591 28.0237 14.0305 27.3295 13.6664C26.3185 13.1363 25.2274 12.8276 24.1012 12.8276H22.973C21.6091 12.8276 20.2905 13.2185 19.0088 13.6847C18.0387 14.0378 17.0874 14.4546 16.1638 14.9159C14.1525 15.9208 12.2795 17.1326 10.741 18.7988C9.97454 19.6289 9.32558 20.5449 8.95228 21.6234C8.83962 21.9455 8.74256 22.2727 8.66145 22.6041L8.63867 23.0779ZM15.9491 32.0316C15.862 33.1988 15.3329 34.1452 14.4683 34.9117C13.9819 35.3426 13.424 35.6494 12.7743 35.7572C12.5387 35.7962 12.2976 35.8056 12.069 35.708C11.7431 35.5687 11.6701 35.2795 11.6638 34.9714C11.6541 34.4803 11.8261 34.0363 12.062 33.6138C12.3698 33.063 12.8211 32.6431 13.3031 32.2509C14.0622 31.6329 14.8858 31.1098 15.7292 30.6161L15.7929 30.5899C15.9232 31.0716 15.9853 31.5473 15.9491 32.0316ZM22.535 26.9585C22.4735 27.3313 22.3965 27.7043 22.2876 28.0656C21.9112 29.3161 21.4277 30.5279 20.9049 31.7234C20.8083 31.9447 20.6677 32.1465 20.5455 32.3562C20.5247 32.3884 20.4998 32.4178 20.4714 32.4436C20.3201 32.5931 20.1766 32.5852 20.1002 32.3897C20.0112 32.1625 19.9565 31.9193 19.9094 31.6787C19.8777 31.5172 19.8853 31.3475 19.8753 31.1821C19.8855 30.0056 20.2444 28.9365 20.8533 27.9412C21.1044 27.5308 21.3777 27.1397 21.7952 26.88C21.9251 26.7992 22.0656 26.737 22.2128 26.6952C22.4353 26.6326 22.5719 26.7355 22.535 26.9585ZM27.0282 32.6831L28.6431 30.7975C28.7104 31.4978 27.5201 32.8957 27.0282 32.6831ZM32.1861 31.4143C32.0719 31.4797 31.9476 31.5268 31.8306 31.5873C31.7235 31.6428 31.6881 31.5868 31.685 31.4946C31.6834 31.4309 31.6916 31.3672 31.7094 31.3059C31.9274 30.5368 32.3287 29.8803 32.9258 29.3462L32.9677 29.3248C33.2518 30.1193 32.9235 30.9918 32.1861 31.4143Z" fill="#CB6699"/>
</svg>
