<svg width="50" height="50" viewBox="0 0 50 50" fill="none" xmlns="http://www.w3.org/2000/svg">
<circle cx="25" cy="25" r="25" fill="white"/>
<path d="M25.1309 14.9214C20.6631 14.9214 17.8717 17.1544 16.7539 21.6222C18.4288 19.3889 20.384 18.5515 22.6173 19.1099C23.8924 19.4277 24.8037 20.3523 25.8128 21.3769C27.4552 23.0436 29.3563 24.9732 33.5078 24.9732C37.9754 24.9732 40.767 22.74 41.8848 18.2711C40.2097 20.5057 38.2547 21.3431 36.0212 20.7847C34.7463 20.4667 33.8361 19.5423 32.8256 18.5177C31.1843 16.851 29.2838 14.9214 25.1309 14.9214ZM16.7539 24.9732C12.2864 24.9732 9.49475 27.2065 8.37695 31.6753C10.0518 29.4408 12.0068 28.6033 14.2403 29.1617C15.5154 29.4798 16.4267 30.4041 17.4359 31.4287C19.0783 33.0955 20.9793 35.0251 25.1309 35.0251C29.5984 35.0251 32.39 32.7921 33.5078 28.3243C31.8327 30.5575 29.8777 31.3949 27.6442 30.8366C26.3694 30.5188 25.4592 29.5942 24.4487 28.5696C22.8073 26.9028 20.9068 24.9732 16.7539 24.9732Z" fill="#38B2AC"/>
</svg>
