<svg width="173" height="27" viewBox="0 0 173 27" fill="none" xmlns="http://www.w3.org/2000/svg">
<path d="M70.3202 14.1063C72.3328 14.5932 73.68 15.1126 74.3942 15.6969C74.8973 16.1027 75.1408 16.6221 75.1408 17.2713C75.1408 17.9205 75.0109 18.4237 74.7512 18.797C74.0533 19.7546 72.8522 20.2416 71.1318 20.2416C68.6971 20.2416 67.35 19.4138 67.0578 17.7745H65.175C65.7107 20.3876 67.7071 21.6861 71.1155 21.6861C72.6412 21.6861 73.9072 21.3452 74.946 20.6798C76.1633 19.8845 76.7801 18.7159 76.7801 17.1577C76.7801 15.8917 76.2932 14.9178 75.3031 14.2199C74.5889 13.7168 73.4528 13.2623 71.8784 12.8565C70.304 12.4508 69.2815 12.1099 68.7945 11.8502C67.7558 11.3308 67.2364 10.6004 67.2364 9.65905C67.2364 9.15589 67.35 8.73389 67.5772 8.40927C68.1778 7.51658 69.2165 7.07834 70.7098 7.07834C72.8198 7.07834 74.0371 7.74381 74.3455 9.07474H76.0659C75.4979 6.83488 73.7125 5.71495 70.7098 5.71495C69.3301 5.71495 68.1453 6.07203 67.1227 6.78619C66.1164 7.51658 65.5971 8.60404 65.5971 10.0486C65.5971 12.0287 67.1714 13.3759 70.3202 14.1063ZM80.6755 21.3939V17.2064C80.6755 15.8268 80.9027 14.7718 81.3897 14.0414C81.6493 13.6356 81.9902 13.3272 82.4122 13.1162C82.8504 12.889 83.4023 12.7754 84.084 12.7754C84.7657 12.7754 85.2526 13.0188 85.5447 13.4733C85.8369 13.944 85.983 14.4958 85.983 15.1451V21.3939H87.5736V15.1451C87.5736 13.9927 87.2815 13.0513 86.6647 12.3371C86.3725 11.9801 85.9992 11.7041 85.561 11.4931C85.1227 11.2984 84.5384 11.1847 83.8243 11.1847C83.1101 11.1847 82.4934 11.3795 81.9415 11.7528C81.4221 12.0937 81.0001 12.5481 80.6755 13.1162V4.35156H79.0849V21.3939H80.6755ZM98.5943 16.3948C98.5943 17.3687 98.2535 18.2127 97.588 18.9431C96.9063 19.6735 96.0786 20.0306 95.0723 20.0306C94.0822 20.0306 93.2382 19.6735 92.5565 18.9431C91.891 18.2127 91.5502 17.3687 91.5502 16.3948C91.5502 15.421 91.891 14.577 92.5565 13.8466C93.2382 13.1162 94.0822 12.7591 95.0723 12.7591C96.0786 12.7591 96.9063 13.1162 97.588 13.8466C98.2535 14.577 98.5943 15.421 98.5943 16.3948ZM100.185 21.3939V11.3957H98.5943V13.1C98.5132 12.9864 98.4158 12.8728 98.3184 12.7591C97.377 11.7041 96.2084 11.1685 94.8288 11.1685C93.4492 11.1685 92.2805 11.7041 91.3392 12.7591C90.414 13.7817 89.9595 14.999 89.9595 16.3948C89.9595 17.7907 90.414 19.008 91.3392 20.0306C92.2805 21.0856 93.4492 21.6212 94.8288 21.6212C96.2084 21.6212 97.377 21.0856 98.3184 20.0306C98.4158 19.9169 98.5132 19.8033 98.5943 19.6897V21.3939H100.185ZM108.739 13.4571V11.3957C108.414 11.2659 108.073 11.1847 107.732 11.1847C106.612 11.1847 105.785 11.8177 105.249 13.0513L105.184 13.4571V11.3957H103.593V21.3939H105.184V16.3948C105.184 15.5671 105.379 14.8367 105.752 14.1874C105.947 13.8304 106.19 13.5544 106.499 13.311C106.791 13.0838 107.148 12.9701 107.554 12.9701C107.976 12.9701 108.365 13.1324 108.739 13.4571ZM118.85 16.3462C118.85 17.3362 118.493 18.1802 117.779 18.8944C117.065 19.6086 116.205 19.9656 115.215 19.9656C114.208 19.9656 113.348 19.6086 112.634 18.8944C111.936 18.1802 111.579 17.3362 111.579 16.3462C111.579 15.3561 111.936 14.4958 112.634 13.7817C113.348 13.0675 114.208 12.7104 115.215 12.7104C116.205 12.7104 117.065 13.0675 117.779 13.7817C118.493 14.4958 118.85 15.3561 118.85 16.3462ZM120.441 16.3462C120.441 14.9178 119.922 13.6843 118.899 12.6618C117.877 11.6392 116.643 11.1198 115.215 11.1198C113.77 11.1198 112.537 11.6392 111.514 12.6618C110.492 13.6843 109.988 14.9178 109.988 16.3462C109.988 17.7907 110.492 19.0242 111.514 20.0306C112.553 21.0531 113.77 21.5563 115.215 21.5563C116.643 21.5563 117.877 21.0531 118.899 20.0306C119.922 19.0242 120.441 17.7907 120.441 16.3462ZM121.691 21.3939H131.575V19.9169H124.726L131.267 11.3957H122.064V12.8728H128.232L121.691 21.3939ZM134.822 21.6212C135.162 21.6212 135.471 21.4913 135.747 21.2479C136.023 21.0044 136.153 20.696 136.153 20.3389C136.153 19.9819 136.023 19.6735 135.763 19.43C135.503 19.1865 135.179 19.0567 134.822 19.0567C134.448 19.0567 134.14 19.1865 133.88 19.4462C133.637 19.6897 133.507 19.9981 133.507 20.3552C133.507 20.696 133.637 21.0044 133.896 21.2479C134.156 21.4913 134.464 21.6212 134.822 21.6212ZM147.514 16.3948C147.514 17.3687 147.189 18.2127 146.508 18.9431C145.826 19.6735 144.998 20.0306 143.992 20.0306C143.002 20.0306 142.158 19.6735 141.492 18.9431C140.811 18.2127 140.47 17.3687 140.47 16.3948C140.47 15.421 140.811 14.577 141.492 13.8466C142.158 13.1162 143.002 12.7591 143.992 12.7591C144.998 12.7591 145.826 13.1162 146.508 13.8466C147.189 14.577 147.514 15.421 147.514 16.3948ZM149.105 21.3939V4.35156H147.514V13.1C147.433 12.9864 147.336 12.8728 147.238 12.7591C146.297 11.7041 145.128 11.1685 143.749 11.1685C142.369 11.1685 141.2 11.7041 140.259 12.7591C139.35 13.7817 138.879 14.999 138.879 16.3948C138.879 17.7907 139.35 19.008 140.259 20.0306C141.2 21.0856 142.369 21.6212 143.749 21.6212C145.128 21.6212 146.297 21.0856 147.238 20.0306C147.336 19.9169 147.433 19.8033 147.514 19.6897V21.3939H149.105ZM162.284 16.1676C162.284 14.788 161.765 13.6031 160.71 12.5968C159.671 11.623 158.454 11.1198 157.058 11.1198C155.63 11.1198 154.396 11.6392 153.373 12.6618C152.351 13.6843 151.831 14.9178 151.831 16.3462C151.831 17.7907 152.351 19.0242 153.373 20.0306C153.844 20.5012 154.396 20.8746 155.029 21.1505C155.662 21.4102 156.409 21.5563 157.301 21.5563C158.194 21.5563 159.054 21.2803 159.914 20.7285C160.775 20.1766 161.408 19.4138 161.83 18.4562H160.012C159.671 18.9269 159.233 19.3002 158.713 19.5599C158.194 19.8358 157.642 19.9656 157.058 19.9656C156.214 19.9656 155.435 19.6897 154.753 19.1216C154.071 18.5698 153.649 17.8719 153.503 17.0116H162.284V16.1676ZM160.612 15.6482H153.52C153.617 15.2262 153.763 14.8367 153.99 14.4796C154.753 13.2948 155.776 12.7104 157.058 12.7104C157.918 12.7104 158.665 12.9864 159.33 13.5382C159.996 14.0901 160.434 14.788 160.612 15.6482ZM168.046 22.3516L172.623 11.3957H170.903L168.046 18.8295L165.157 11.3957H163.42L168.046 22.3516Z" fill="black"/>
<path d="M12.4708 0.864446L0 13.5005L12.4702 26.1353C12.7388 26.409 13.0594 26.6264 13.413 26.7749C13.7666 26.9233 14.1463 26.9999 14.5298 27C14.9134 27.0001 15.2931 26.9238 15.6468 26.7756C16.0005 26.6273 16.3212 26.4101 16.59 26.1366C17.1371 25.5801 17.4438 24.831 17.444 24.0506C17.4443 23.2702 17.1381 22.5209 16.5913 21.9641L8.68541 13.9574L6.2996 15.4643L16.592 5.03565C17.1401 4.48011 17.4466 3.73049 17.4445 2.95005C17.4461 2.16905 17.1393 1.41902 16.5907 0.86313C16.3218 0.58968 16.0011 0.372523 15.6474 0.22433C15.2937 0.0761374 14.914 -0.000122419 14.5305 1.47508e-07C14.147 0.000122714 13.7673 0.0766258 13.4137 0.225044C13.0601 0.373463 12.7396 0.590824 12.4708 0.864446V0.864446ZM46.7793 0.865105L59.2501 13.5005L46.7799 26.1353C46.5113 26.409 46.1907 26.6264 45.8371 26.7749C45.4835 26.9233 45.1038 26.9999 44.7203 27C44.3367 27.0001 43.957 26.9238 43.6033 26.7756C43.2496 26.6273 42.9289 26.4101 42.6601 26.1366C42.113 25.5801 41.8063 24.831 41.8061 24.0506C41.8059 23.2702 42.112 22.5209 42.6588 21.9641L50.5647 13.9581L52.9505 15.465L42.6574 5.03631C42.1093 4.48077 41.8029 3.73115 41.8049 2.95071C41.8033 2.16971 42.1102 1.41968 42.6588 0.863788C42.9276 0.590157 43.2483 0.372844 43.6021 0.224541C43.9559 0.0762381 44.3357 -8.09952e-05 44.7193 4.15847e-05C45.1029 0.000164165 45.4827 0.0767265 45.8363 0.225255C46.19 0.373784 46.5106 0.591303 46.7793 0.865105V0.865105ZM36.8002 1.88157C36.5167 1.15386 35.9567 0.567877 35.2426 0.251537C34.8924 0.0950997 34.5146 0.0100026 34.1311 0.00121313C33.7477 -0.00757636 33.3663 0.0601188 33.0093 0.200345C32.6523 0.340572 32.3268 0.550519 32.0518 0.817928C31.7769 1.08534 31.5579 1.40485 31.4078 1.75781L22.3096 22.8653C22.0025 23.5827 21.9912 24.3924 22.278 25.1181C22.5616 25.8459 23.1216 26.4318 23.8357 26.7482C24.1859 26.9046 24.5637 26.9897 24.9472 26.9985C25.3306 27.0073 25.712 26.9396 26.069 26.7994C26.426 26.6591 26.7515 26.4492 27.0264 26.1818C27.3014 25.9144 27.5203 25.5949 27.6705 25.2419L36.7686 4.13439C37.0757 3.41698 37.0871 2.60732 36.8002 1.88157Z" fill="url(#paint0_linear_193_15)"/>
<defs>
<linearGradient id="paint0_linear_193_15" x1="-8.51433" y1="-0.428088" x2="45.1845" y2="24.6121" gradientUnits="userSpaceOnUse">
<stop stop-color="#EC255A"/>
<stop offset="1" stop-color="#9145B6"/>
</linearGradient>
</defs>
</svg>
